# garage shelving metric OBJ
o rear_2x4_rail_shelf_1
v 0.000 0.000 0.000
v 3657.600 0.000 0.000
v 3657.600 38.100 0.000
v 0.000 38.100 0.000
v 0.000 0.000 88.900
v 3657.600 0.000 88.900
v 3657.600 38.100 88.900
v 0.000 38.100 88.900
f 1 2 3 4
f 5 8 7 6
f 1 5 6 2
f 2 6 7 3
f 3 7 8 4
f 4 8 5 1
o front_2x4_rail_shelf_1
v 0.000 571.500 0.000
v 3657.600 571.500 0.000
v 3657.600 609.600 0.000
v 0.000 609.600 0.000
v 0.000 571.500 88.900
v 3657.600 571.500 88.900
v 3657.600 609.600 88.900
v 0.000 609.600 88.900
f 9 10 11 12
f 13 16 15 14
f 9 13 14 10
f 10 14 15 11
f 11 15 16 12
f 12 16 13 9
o depth_2x4_support_shelf_1_1
v 0.000 38.100 0.000
v 38.100 38.100 0.000
v 38.100 571.500 0.000
v 0.000 571.500 0.000
v 0.000 38.100 88.900
v 38.100 38.100 88.900
v 38.100 571.500 88.900
v 0.000 571.500 88.900
f 17 18 19 20
f 21 24 23 22
f 17 21 22 18
f 18 22 23 19
f 19 23 24 20
f 20 24 21 17
o depth_2x4_support_shelf_1_2
v 1828.800 38.100 0.000
v 1866.900 38.100 0.000
v 1866.900 571.500 0.000
v 1828.800 571.500 0.000
v 1828.800 38.100 88.900
v 1866.900 38.100 88.900
v 1866.900 571.500 88.900
v 1828.800 571.500 88.900
f 25 26 27 28
f 29 32 31 30
f 25 29 30 26
f 26 30 31 27
f 27 31 32 28
f 28 32 29 25
o depth_2x4_support_shelf_1_3
v 3619.500 38.100 0.000
v 3657.600 38.100 0.000
v 3657.600 571.500 0.000
v 3619.500 571.500 0.000
v 3619.500 38.100 88.900
v 3657.600 38.100 88.900
v 3657.600 571.500 88.900
v 3619.500 571.500 88.900
f 33 34 35 36
f 37 40 39 38
f 33 37 38 34
f 34 38 39 35
f 35 39 40 36
f 36 40 37 33
o plywood_96in_shelf_1
v 0.000 0.000 88.900
v 2438.400 0.000 88.900
v 2438.400 609.600 88.900
v 0.000 609.600 88.900
v 0.000 0.000 101.600
v 2438.400 0.000 101.600
v 2438.400 609.600 101.600
v 0.000 609.600 101.600
f 41 42 43 44
f 45 48 47 46
f 41 45 46 42
f 42 46 47 43
f 43 47 48 44
f 44 48 45 41
o plywood_48in_shelf_1
v 2438.400 0.000 88.900
v 3657.600 0.000 88.900
v 3657.600 609.600 88.900
v 2438.400 609.600 88.900
v 2438.400 0.000 101.600
v 3657.600 0.000 101.600
v 3657.600 609.600 101.600
v 2438.400 609.600 101.600
f 49 50 51 52
f 53 56 55 54
f 49 53 54 50
f 50 54 55 51
f 51 55 56 52
f 52 56 53 49
o rear_2x4_rail_shelf_2
v 0.000 0.000 482.600
v 3657.600 0.000 482.600
v 3657.600 38.100 482.600
v 0.000 38.100 482.600
v 0.000 0.000 571.500
v 3657.600 0.000 571.500
v 3657.600 38.100 571.500
v 0.000 38.100 571.500
f 57 58 59 60
f 61 64 63 62
f 57 61 62 58
f 58 62 63 59
f 59 63 64 60
f 60 64 61 57
o front_2x4_rail_shelf_2
v 0.000 571.500 482.600
v 3657.600 571.500 482.600
v 3657.600 609.600 482.600
v 0.000 609.600 482.600
v 0.000 571.500 571.500
v 3657.600 571.500 571.500
v 3657.600 609.600 571.500
v 0.000 609.600 571.500
f 65 66 67 68
f 69 72 71 70
f 65 69 70 66
f 66 70 71 67
f 67 71 72 68
f 68 72 69 65
o depth_2x4_support_shelf_2_1
v 0.000 38.100 482.600
v 38.100 38.100 482.600
v 38.100 571.500 482.600
v 0.000 571.500 482.600
v 0.000 38.100 571.500
v 38.100 38.100 571.500
v 38.100 571.500 571.500
v 0.000 571.500 571.500
f 73 74 75 76
f 77 80 79 78
f 73 77 78 74
f 74 78 79 75
f 75 79 80 76
f 76 80 77 73
o depth_2x4_support_shelf_2_2
v 1828.800 38.100 482.600
v 1866.900 38.100 482.600
v 1866.900 571.500 482.600
v 1828.800 571.500 482.600
v 1828.800 38.100 571.500
v 1866.900 38.100 571.500
v 1866.900 571.500 571.500
v 1828.800 571.500 571.500
f 81 82 83 84
f 85 88 87 86
f 81 85 86 82
f 82 86 87 83
f 83 87 88 84
f 84 88 85 81
o depth_2x4_support_shelf_2_3
v 3619.500 38.100 482.600
v 3657.600 38.100 482.600
v 3657.600 571.500 482.600
v 3619.500 571.500 482.600
v 3619.500 38.100 571.500
v 3657.600 38.100 571.500
v 3657.600 571.500 571.500
v 3619.500 571.500 571.500
f 89 90 91 92
f 93 96 95 94
f 89 93 94 90
f 90 94 95 91
f 91 95 96 92
f 92 96 93 89
o plywood_96in_shelf_2
v 0.000 0.000 571.500
v 2438.400 0.000 571.500
v 2438.400 609.600 571.500
v 0.000 609.600 571.500
v 0.000 0.000 584.200
v 2438.400 0.000 584.200
v 2438.400 609.600 584.200
v 0.000 609.600 584.200
f 97 98 99 100
f 101 104 103 102
f 97 101 102 98
f 98 102 103 99
f 99 103 104 100
f 100 104 101 97
o plywood_48in_shelf_2
v 2438.400 0.000 571.500
v 3657.600 0.000 571.500
v 3657.600 609.600 571.500
v 2438.400 609.600 571.500
v 2438.400 0.000 584.200
v 3657.600 0.000 584.200
v 3657.600 609.600 584.200
v 2438.400 609.600 584.200
f 105 106 107 108
f 109 112 111 110
f 105 109 110 106
f 106 110 111 107
f 107 111 112 108
f 108 112 109 105
o rear_2x4_rail_shelf_3
v 0.000 0.000 965.200
v 3657.600 0.000 965.200
v 3657.600 38.100 965.200
v 0.000 38.100 965.200
v 0.000 0.000 1054.100
v 3657.600 0.000 1054.100
v 3657.600 38.100 1054.100
v 0.000 38.100 1054.100
f 113 114 115 116
f 117 120 119 118
f 113 117 118 114
f 114 118 119 115
f 115 119 120 116
f 116 120 117 113
o front_2x4_rail_shelf_3
v 0.000 571.500 965.200
v 3657.600 571.500 965.200
v 3657.600 609.600 965.200
v 0.000 609.600 965.200
v 0.000 571.500 1054.100
v 3657.600 571.500 1054.100
v 3657.600 609.600 1054.100
v 0.000 609.600 1054.100
f 121 122 123 124
f 125 128 127 126
f 121 125 126 122
f 122 126 127 123
f 123 127 128 124
f 124 128 125 121
o depth_2x4_support_shelf_3_1
v 0.000 38.100 965.200
v 38.100 38.100 965.200
v 38.100 571.500 965.200
v 0.000 571.500 965.200
v 0.000 38.100 1054.100
v 38.100 38.100 1054.100
v 38.100 571.500 1054.100
v 0.000 571.500 1054.100
f 129 130 131 132
f 133 136 135 134
f 129 133 134 130
f 130 134 135 131
f 131 135 136 132
f 132 136 133 129
o depth_2x4_support_shelf_3_2
v 1828.800 38.100 965.200
v 1866.900 38.100 965.200
v 1866.900 571.500 965.200
v 1828.800 571.500 965.200
v 1828.800 38.100 1054.100
v 1866.900 38.100 1054.100
v 1866.900 571.500 1054.100
v 1828.800 571.500 1054.100
f 137 138 139 140
f 141 144 143 142
f 137 141 142 138
f 138 142 143 139
f 139 143 144 140
f 140 144 141 137
o depth_2x4_support_shelf_3_3
v 3619.500 38.100 965.200
v 3657.600 38.100 965.200
v 3657.600 571.500 965.200
v 3619.500 571.500 965.200
v 3619.500 38.100 1054.100
v 3657.600 38.100 1054.100
v 3657.600 571.500 1054.100
v 3619.500 571.500 1054.100
f 145 146 147 148
f 149 152 151 150
f 145 149 150 146
f 146 150 151 147
f 147 151 152 148
f 148 152 149 145
o plywood_96in_shelf_3
v 0.000 0.000 1054.100
v 2438.400 0.000 1054.100
v 2438.400 609.600 1054.100
v 0.000 609.600 1054.100
v 0.000 0.000 1066.800
v 2438.400 0.000 1066.800
v 2438.400 609.600 1066.800
v 0.000 609.600 1066.800
f 153 154 155 156
f 157 160 159 158
f 153 157 158 154
f 154 158 159 155
f 155 159 160 156
f 156 160 157 153
o plywood_48in_shelf_3
v 2438.400 0.000 1054.100
v 3657.600 0.000 1054.100
v 3657.600 609.600 1054.100
v 2438.400 609.600 1054.100
v 2438.400 0.000 1066.800
v 3657.600 0.000 1066.800
v 3657.600 609.600 1066.800
v 2438.400 609.600 1066.800
f 161 162 163 164
f 165 168 167 166
f 161 165 166 162
f 162 166 167 163
f 163 167 168 164
f 164 168 165 161
o rear_2x4_rail_shelf_4
v 0.000 0.000 1447.800
v 3657.600 0.000 1447.800
v 3657.600 38.100 1447.800
v 0.000 38.100 1447.800
v 0.000 0.000 1536.700
v 3657.600 0.000 1536.700
v 3657.600 38.100 1536.700
v 0.000 38.100 1536.700
f 169 170 171 172
f 173 176 175 174
f 169 173 174 170
f 170 174 175 171
f 171 175 176 172
f 172 176 173 169
o front_2x4_rail_shelf_4
v 0.000 571.500 1447.800
v 3657.600 571.500 1447.800
v 3657.600 609.600 1447.800
v 0.000 609.600 1447.800
v 0.000 571.500 1536.700
v 3657.600 571.500 1536.700
v 3657.600 609.600 1536.700
v 0.000 609.600 1536.700
f 177 178 179 180
f 181 184 183 182
f 177 181 182 178
f 178 182 183 179
f 179 183 184 180
f 180 184 181 177
o depth_2x4_support_shelf_4_1
v 0.000 38.100 1447.800
v 38.100 38.100 1447.800
v 38.100 571.500 1447.800
v 0.000 571.500 1447.800
v 0.000 38.100 1536.700
v 38.100 38.100 1536.700
v 38.100 571.500 1536.700
v 0.000 571.500 1536.700
f 185 186 187 188
f 189 192 191 190
f 185 189 190 186
f 186 190 191 187
f 187 191 192 188
f 188 192 189 185
o depth_2x4_support_shelf_4_2
v 1828.800 38.100 1447.800
v 1866.900 38.100 1447.800
v 1866.900 571.500 1447.800
v 1828.800 571.500 1447.800
v 1828.800 38.100 1536.700
v 1866.900 38.100 1536.700
v 1866.900 571.500 1536.700
v 1828.800 571.500 1536.700
f 193 194 195 196
f 197 200 199 198
f 193 197 198 194
f 194 198 199 195
f 195 199 200 196
f 196 200 197 193
o depth_2x4_support_shelf_4_3
v 3619.500 38.100 1447.800
v 3657.600 38.100 1447.800
v 3657.600 571.500 1447.800
v 3619.500 571.500 1447.800
v 3619.500 38.100 1536.700
v 3657.600 38.100 1536.700
v 3657.600 571.500 1536.700
v 3619.500 571.500 1536.700
f 201 202 203 204
f 205 208 207 206
f 201 205 206 202
f 202 206 207 203
f 203 207 208 204
f 204 208 205 201
o plywood_96in_shelf_4
v 0.000 0.000 1536.700
v 2438.400 0.000 1536.700
v 2438.400 609.600 1536.700
v 0.000 609.600 1536.700
v 0.000 0.000 1549.400
v 2438.400 0.000 1549.400
v 2438.400 609.600 1549.400
v 0.000 609.600 1549.400
f 209 210 211 212
f 213 216 215 214
f 209 213 214 210
f 210 214 215 211
f 211 215 216 212
f 212 216 213 209
o plywood_48in_shelf_4
v 2438.400 0.000 1536.700
v 3657.600 0.000 1536.700
v 3657.600 609.600 1536.700
v 2438.400 609.600 1536.700
v 2438.400 0.000 1549.400
v 3657.600 0.000 1549.400
v 3657.600 609.600 1549.400
v 2438.400 609.600 1549.400
f 217 218 219 220
f 221 224 223 222
f 217 221 222 218
f 218 222 223 219
f 219 223 224 220
f 220 224 221 217
o front_upright_2x4_1
v 0.000 571.500 0.000
v 38.100 571.500 0.000
v 38.100 609.600 0.000
v 0.000 609.600 0.000
v 0.000 571.500 1943.100
v 38.100 571.500 1943.100
v 38.100 609.600 1943.100
v 0.000 609.600 1943.100
f 225 226 227 228
f 229 232 231 230
f 225 229 230 226
f 226 230 231 227
f 227 231 232 228
f 228 232 229 225
o front_upright_2x4_2
v 1828.800 571.500 0.000
v 1866.900 571.500 0.000
v 1866.900 609.600 0.000
v 1828.800 609.600 0.000
v 1828.800 571.500 1943.100
v 1866.900 571.500 1943.100
v 1866.900 609.600 1943.100
v 1828.800 609.600 1943.100
f 233 234 235 236
f 237 240 239 238
f 233 237 238 234
f 234 238 239 235
f 235 239 240 236
f 236 240 237 233
o front_upright_2x4_3
v 3619.500 571.500 0.000
v 3657.600 571.500 0.000
v 3657.600 609.600 0.000
v 3619.500 609.600 0.000
v 3619.500 571.500 1943.100
v 3657.600 571.500 1943.100
v 3657.600 609.600 1943.100
v 3619.500 609.600 1943.100
f 241 242 243 244
f 245 248 247 246
f 241 245 246 242
f 242 246 247 243
f 243 247 248 244
f 244 248 245 241
