<svg xmlns="http://www.w3.org/2000/svg" width="453" height="330" viewBox="0 0 453 330">
<rect width="100%" height="100%" fill="#f6f3ee"/>
<style>text{font-family:Arial,sans-serif;font-size:13px;fill:#333}.dim{stroke:#333;stroke-width:1;marker-start:url(#a);marker-end:url(#a)}.wood{fill:#b88a4b;stroke:#5f421f}.ply{fill:#c6a56a;stroke:#5f421f}</style>
<defs><marker id="a" markerWidth="8" markerHeight="8" refX="4" refY="4" orient="auto"><path d="M0,0 L8,4 L0,8 z" fill="#333"/></marker></defs>
<rect class="ply" x="70" y="68" width="292.6" height="16"/>
<rect class="wood" x="70" y="80" width="292.6" height="8"/>
<rect class="ply" x="70" y="113" width="292.6" height="16"/>
<rect class="wood" x="70" y="125" width="292.6" height="8"/>
<rect class="ply" x="70" y="158" width="292.6" height="16"/>
<rect class="wood" x="70" y="170" width="292.6" height="8"/>
<rect class="ply" x="70" y="203" width="292.6" height="16"/>
<rect class="wood" x="70" y="215" width="292.6" height="8"/>
<rect class="wood" x="70.0" y="64" width="3.0" height="155.4"/>
<rect class="wood" x="216.3" y="64" width="3.0" height="155.4"/>
<rect class="wood" x="359.6" y="64" width="3.0" height="155.4"/>
<line class="dim" x1="70" y1="35" x2="362.6" y2="35"/>
<text x="171.3" y="28">3657.6 mm / 144 in</text>
<line class="dim" x1="407.6" y1="64" x2="407.6" y2="219.4"/>
<text x="414.6" y="157.7">1943.1 mm</text>
<text x="70" y="300">Depth: 609.6 mm / 24 in. Shelf spacing shown: 482.6 mm / 19 in.</text>
</svg>
